<?xml version="1.0" encoding="UTF-8"?>
<svg version="1.1" xmlns="http://www.w3.org/2000/svg" width="64" height="64">
<path d="M0 0 C1.07451416 -0.00630432 2.14902832 -0.01260864 3.25610352 -0.019104 C5.00298462 -0.01303131 5.00298462 -0.01303131 6.78515625 -0.00683594 C7.97616943 -0.00874939 9.16718262 -0.01066284 10.39428711 -0.01263428 C12.91618053 -0.01399724 15.43808094 -0.0102931 17.95996094 -0.00195312 C21.83153974 0.00874453 25.70265447 -0.00184499 29.57421875 -0.01464844 C32.01953228 -0.01332686 34.46484552 -0.01076451 36.91015625 -0.00683594 C38.07474365 -0.0108844 39.23933105 -0.01493286 40.43920898 -0.019104 C42.05098022 -0.00964752 42.05098022 -0.00964752 43.6953125 0 C45.11855835 0.00238678 45.11855835 0.00238678 46.57055664 0.00482178 C48.84765625 0.25878906 48.84765625 0.25878906 50.84765625 2.25878906 C51.02319044 5.34403845 51.07888422 8.33843108 51.04296875 11.42285156 C51.04013885 12.33005951 51.03730896 13.23726746 51.03439331 14.17196655 C51.02317778 17.07604029 50.99807088 19.97980818 50.97265625 22.88378906 C50.96262822 24.84993045 50.95350206 26.81607666 50.9453125 28.78222656 C50.92323397 33.60786565 50.8886949 38.43327546 50.84765625 43.25878906 C48.36410584 44.50056427 46.71658003 44.37915587 43.93896484 44.37231445 C42.91805756 44.37223892 41.89715027 44.37216339 40.8453064 44.37208557 C39.18744614 44.36434364 39.18744614 44.36434364 37.49609375 44.35644531 C36.36692535 44.35503036 35.23775696 44.35361542 34.07437134 44.35215759 C30.45710637 44.3465465 26.83990261 44.33399209 23.22265625 44.32128906 C20.77474048 44.31627549 18.32682373 44.31171234 15.87890625 44.30761719 C9.86846859 44.29657346 3.85806679 44.2798245 -2.15234375 44.25878906 C-2.15234375 42.93878906 -2.15234375 41.61878906 -2.15234375 40.25878906 C-1.49234375 40.25878906 -0.83234375 40.25878906 -0.15234375 40.25878906 C-0.15234375 38.27878906 -0.15234375 36.29878906 -0.15234375 34.25878906 C-1.47234375 34.25878906 -2.79234375 34.25878906 -4.15234375 34.25878906 C-4.15234375 35.90878906 -4.15234375 37.55878906 -4.15234375 39.25878906 C-5.14234375 39.25878906 -6.13234375 39.25878906 -7.15234375 39.25878906 C-7.20170199 34.02605575 -7.23804324 28.7934573 -7.26220703 23.56054688 C-7.27227806 21.77959839 -7.2859356 19.99866649 -7.30322266 18.21777344 C-7.32742288 15.66109123 -7.33881559 13.10462721 -7.34765625 10.54785156 C-7.35797882 9.7488443 -7.36830139 8.94983704 -7.37893677 8.12661743 C-7.37933601 6.16921687 -7.27475444 4.2123583 -7.15234375 2.25878906 C-4.57675247 -0.31680221 -3.57917695 0.00600227 0 0 Z M-3.15234375 4.25878906 C-4.44867996 5.32524021 -4.44867996 5.32524021 -4.21484375 7.82128906 C-4.19421875 8.62566406 -4.17359375 9.43003906 -4.15234375 10.25878906 C-2.83234375 10.25878906 -1.51234375 10.25878906 -0.15234375 10.25878906 C-0.15234375 8.27878906 -0.15234375 6.29878906 -0.15234375 4.25878906 C-1.14234375 4.25878906 -2.13234375 4.25878906 -3.15234375 4.25878906 Z M43.84765625 4.25878906 C43.84765625 6.23878906 43.84765625 8.21878906 43.84765625 10.25878906 C45.16765625 10.25878906 46.48765625 10.25878906 47.84765625 10.25878906 C47.84765625 8.60878906 47.84765625 6.95878906 47.84765625 5.25878906 C46.52765625 4.92878906 45.20765625 4.59878906 43.84765625 4.25878906 Z M-4.15234375 14.25878906 C-4.15234375 16.23878906 -4.15234375 18.21878906 -4.15234375 20.25878906 C-2.83234375 20.25878906 -1.51234375 20.25878906 -0.15234375 20.25878906 C-0.15234375 18.27878906 -0.15234375 16.29878906 -0.15234375 14.25878906 C-1.47234375 14.25878906 -2.79234375 14.25878906 -4.15234375 14.25878906 Z M43.84765625 14.25878906 C43.84765625 16.23878906 43.84765625 18.21878906 43.84765625 20.25878906 C45.16765625 20.25878906 46.48765625 20.25878906 47.84765625 20.25878906 C47.84765625 18.27878906 47.84765625 16.29878906 47.84765625 14.25878906 C46.52765625 14.25878906 45.20765625 14.25878906 43.84765625 14.25878906 Z M-4.15234375 24.25878906 C-4.15234375 26.23878906 -4.15234375 28.21878906 -4.15234375 30.25878906 C-2.83234375 30.25878906 -1.51234375 30.25878906 -0.15234375 30.25878906 C-0.15234375 28.27878906 -0.15234375 26.29878906 -0.15234375 24.25878906 C-1.47234375 24.25878906 -2.79234375 24.25878906 -4.15234375 24.25878906 Z M43.84765625 24.25878906 C43.84765625 26.23878906 43.84765625 28.21878906 43.84765625 30.25878906 C45.16765625 30.25878906 46.48765625 30.25878906 47.84765625 30.25878906 C47.84765625 28.27878906 47.84765625 26.29878906 47.84765625 24.25878906 C46.52765625 24.25878906 45.20765625 24.25878906 43.84765625 24.25878906 Z M43.84765625 34.25878906 C43.84765625 36.23878906 43.84765625 38.21878906 43.84765625 40.25878906 C45.16765625 39.92878906 46.48765625 39.59878906 47.84765625 39.25878906 C47.84765625 37.60878906 47.84765625 35.95878906 47.84765625 34.25878906 C46.52765625 34.25878906 45.20765625 34.25878906 43.84765625 34.25878906 Z " fill="#444A53" transform="translate(10.15234375,9.7412109375)"/>
<path d="M0 0 C3.91211733 1.15585285 6.8745041 2.35534962 10 5 C8.90648447 8.17119503 7.9873012 9.00783543 5.0625 10.8125 C2 12 2 12 -1 11 C-1.02688151 9.35425434 -1.04634123 7.70838587 -1.0625 6.0625 C-1.07410156 5.14597656 -1.08570312 4.22945312 -1.09765625 3.28515625 C-1 1 -1 1 0 0 Z " fill="#F05473" transform="translate(27,26)"/>
</svg>
